<svg width="16" height="17" viewBox="0 0 16 17" fill="none" xmlns="http://www.w3.org/2000/svg">
<g clip-path="url(#clip0_1_1641)">
<path fill-rule="evenodd" clip-rule="evenodd" d="M1.88547 0.581703C2.06045 0.406992 2.27055 0.271462 2.50187 0.184093C2.73318 0.0967252 2.98043 0.0595142 3.22721 0.0749264C3.47399 0.0903386 3.71469 0.158022 3.93333 0.273492C4.15198 0.388961 4.34359 0.54958 4.49547 0.744704L6.29047 3.0507C6.61947 3.4737 6.73547 4.0247 6.60547 4.5447L6.05847 6.7347C6.03019 6.84813 6.03172 6.96695 6.06291 7.07961C6.0941 7.19228 6.15388 7.29497 6.23647 7.3777L8.69347 9.8347C8.77631 9.91746 8.87916 9.97735 8.99202 10.0085C9.10488 10.0397 9.22389 10.0412 9.33747 10.0127L11.5265 9.4657C11.7831 9.40154 12.0509 9.39656 12.3098 9.45113C12.5686 9.5057 12.8116 9.6184 13.0205 9.7807L15.3265 11.5747C16.1555 12.2197 16.2315 13.4447 15.4895 14.1857L14.4555 15.2197C13.7155 15.9597 12.6095 16.2847 11.5785 15.9217C8.93965 14.9932 6.54374 13.4825 4.56847 11.5017C2.58776 9.52672 1.07708 7.13116 0.148471 4.4927C-0.213529 3.4627 0.111471 2.3557 0.851471 1.6157L1.88547 0.581703Z" fill="white"/>
</g>
<defs>
<clipPath id="clip0_1_1641">
<rect width="16" height="16" fill="white" transform="translate(0 0.0705566)"/>
</clipPath>
</defs>
</svg>
