<svg width="129" height="38" viewBox="0 0 129 38" fill="none" xmlns="http://www.w3.org/2000/svg">
<path fill-rule="evenodd" clip-rule="evenodd" d="M5.9771 33.2248C8.6511 35.7601 11.9571 37.4339 15.5221 37.9754L16.2491 32.8802C13.6461 32.4618 11.2301 31.2557 9.28409 29.4096C7.33709 27.5635 5.95409 25.1267 5.32109 22.4684C4.68709 19.7854 4.82809 16.9794 5.71909 14.3703C6.61009 11.7612 8.20509 9.52135 10.3161 7.87215C12.4261 6.22295 14.9591 5.28765 17.5851 5.16455C20.2121 5.04155 22.8151 5.73075 25.0661 7.13375C27.3171 8.56135 29.1231 10.6535 30.2491 13.1396C31.3741 15.6256 31.7501 18.4316 31.3741 21.1638L36.2291 21.9269C36.7681 18.1855 36.2291 14.3703 34.6811 10.9489C33.1571 7.52755 30.6711 4.67225 27.5991 2.72775C24.5031 0.783247 20.9391 -0.152153 17.3511 0.0201473C13.7631 0.192447 10.2921 1.49705 7.38409 3.73695C4.50009 5.97685 2.2961 9.07825 1.0761 12.6473C-0.142904 16.2164 -0.330906 20.0562 0.537094 23.7237C1.42809 27.3666 3.3271 30.6896 5.9771 33.2248Z" fill="white"/>
<path fill-rule="evenodd" clip-rule="evenodd" d="M29.123 34.3572C31.586 32.4373 33.532 29.8774 34.798 26.9483L30.483 24.9053C29.545 27.0713 28.091 28.9666 26.286 30.3943C24.457 31.8219 22.346 32.7326 20.095 33.0772L20.751 38.0001C23.776 37.5324 26.661 36.2771 29.123 34.3572Z" fill="#00B8AF"/>
<path fill-rule="evenodd" clip-rule="evenodd" d="M28.7241 16.9055C28.3021 14.7148 27.2931 12.6964 25.7931 11.1211L22.6501 14.4194C23.5411 15.3548 24.1281 16.5362 24.3851 17.8162C24.6201 19.0961 24.5031 20.4253 24.0341 21.656C23.5651 22.8621 22.7441 23.8959 21.7121 24.6343C20.6801 25.3728 19.4611 25.742 18.1941 25.742C16.9281 25.742 15.7321 25.3482 14.6771 24.6343C13.6451 23.8959 12.8241 22.8621 12.3551 21.656C11.8861 20.4499 11.7461 19.1207 12.0031 17.8162C12.2381 16.5362 12.8481 15.3548 13.7391 14.4194L10.5731 11.1211C9.07207 12.6964 8.04007 14.7148 7.64207 16.9055C7.22007 19.0961 7.43108 21.3606 8.25108 23.4282C9.07208 25.4958 10.4321 27.2435 12.2151 28.4988C13.9731 29.7295 16.0601 30.3941 18.1941 30.3941C20.3281 30.3941 22.3921 29.7295 24.1741 28.4988C25.9331 27.2681 27.3171 25.4958 28.1381 23.4282C28.9111 21.3606 29.1461 19.0961 28.7241 16.9055Z" fill="#2D98DA"/>
<path d="M100.813 12.0566C100.813 15.6503 99.711 18.6286 97.506 20.9916C95.302 23.3545 92.488 24.536 89.087 24.536H75.979V0.118652H89.087C92.511 0.118652 95.325 1.22625 97.506 3.41695C99.711 5.58295 100.813 8.46285 100.813 12.0566ZM96.756 12.4012C96.756 10.0382 96.029 8.11825 94.575 6.61675C93.144 5.11535 91.315 4.35225 89.087 4.35225H79.989V20.2778H89.087C91.315 20.2778 93.144 19.5393 94.575 18.0871C96.029 16.6348 96.756 14.7395 96.756 12.4012Z" fill="white"/>
<path d="M73.0469 24.5362H67.9579L64.0179 17.6442H54.1689L56.6309 13.509H61.7199L57.5689 6.44474L47.1099 24.5362H41.8569L54.3329 2.67874C54.5679 2.26034 54.9899 1.25114 55.5529 0.783438C56.2329 0.241938 56.8889 0.0942383 57.4289 0.0942383C58.0149 0.0942383 58.6719 0.266538 59.3049 0.783438C59.8439 1.22654 60.1959 2.06334 60.5239 2.67874L73.0469 24.5362Z" fill="white"/>
<path d="M109.489 14.6163C107.66 14.6163 105.901 13.8533 104.611 12.4995C103.322 11.1457 102.595 9.29957 102.595 7.37967C102.595 5.45977 103.322 3.61367 104.611 2.25987C105.901 0.906167 107.66 0.143066 109.489 0.143066H129L126.538 4.45057H109.466C108.739 4.45057 108.035 4.79517 107.519 5.33667C107.003 5.87817 106.722 6.61667 106.722 7.37967C106.722 8.14277 107.003 8.88117 107.519 9.42267C108.035 9.96417 108.739 10.3088 109.466 10.3088H122.27C123.138 10.3088 123.982 10.5057 124.803 10.8503C125.623 11.2195 126.374 11.7364 127.007 12.401C127.64 13.0656 128.133 13.8533 128.484 14.7148C128.836 15.5763 129 16.5116 129 17.447C129 18.3823 128.813 19.3176 128.484 20.1791C128.133 21.0406 127.64 21.8283 127.007 22.4929C126.374 23.1575 125.623 23.6744 124.803 24.0436C124.005 24.3882 123.138 24.5851 122.27 24.5851H102.595L105.057 20.2776H122.293C122.622 20.2776 122.95 20.2038 123.255 20.0807C123.583 19.933 123.888 19.7361 124.146 19.4653C124.404 19.1946 124.592 18.8746 124.732 18.53C124.873 18.1854 124.943 17.8162 124.943 17.447C124.943 17.0777 124.873 16.7085 124.732 16.3639C124.592 16.0193 124.404 15.6993 124.146 15.4286C123.888 15.1578 123.583 14.9609 123.255 14.8132C122.95 14.6902 122.622 14.6163 122.293 14.6163H109.489Z" fill="white"/>
<path d="M44.1789 32.5601C44.4839 32.5601 44.6709 32.6093 44.7649 32.6832C44.8589 32.7816 44.9529 33.0032 45.0469 33.3478L46.1719 37.6553C46.1959 37.7291 46.1719 37.7537 46.1019 37.7537H45.7269C45.7029 37.7537 45.6559 37.7291 45.6559 37.6553L45.2339 36.0553H43.1699L42.7479 37.6553C42.7249 37.7045 42.7009 37.7537 42.6779 37.7537H42.3029C42.2559 37.7537 42.2319 37.7291 42.2319 37.6553L43.4049 33.3478C43.4989 33.0032 43.5929 32.7816 43.6859 32.6832C43.7569 32.5847 43.9209 32.5601 44.1789 32.5601ZM44.1789 33.0032C44.0849 33.0032 44.0149 33.0278 43.9679 33.077C43.9209 33.1262 43.8739 33.2493 43.8269 33.4462L43.2639 35.563H45.0929L44.5539 33.4462C44.5069 33.2493 44.4599 33.1262 44.4129 33.077C44.3899 33.0278 44.3199 33.0032 44.1789 33.0032ZM49.6659 32.5601C50.3929 32.5601 50.9089 32.757 51.2139 33.1508C51.5189 33.5447 51.6599 34.2093 51.6599 35.1692C51.6599 36.1292 51.5189 36.7938 51.2139 37.1876C50.9089 37.5814 50.3929 37.7783 49.6659 37.7783C48.9859 37.7783 48.3999 37.7783 47.8839 37.7537C47.8369 37.7537 47.7899 37.7291 47.7899 37.6553V32.6832C47.7899 32.6339 47.8139 32.6093 47.8839 32.5847C48.2589 32.5601 48.8689 32.5601 49.6659 32.5601ZM49.5729 33.0032H48.2829V37.3107H49.6429C50.2059 37.3107 50.5809 37.1384 50.7919 36.8184C51.0029 36.4984 51.1199 35.9323 51.1199 35.1446C51.1199 34.3569 51.0029 33.8154 50.7679 33.4954C50.5569 33.1755 50.1589 33.0032 49.5729 33.0032ZM52.9729 32.5847H53.3479C53.3719 32.5847 53.3949 32.5847 53.3949 32.6093C53.3949 32.6093 53.4179 32.6339 53.4179 32.6832L54.5439 36.8676C54.5909 37.0645 54.6379 37.2122 54.6609 37.2614C54.6849 37.3107 54.7549 37.3353 54.8249 37.3353C54.9189 37.3353 54.9899 37.3107 55.0129 37.2614C55.0599 37.2122 55.0829 37.0891 55.1299 36.8922L56.2089 32.7078C56.2089 32.6586 56.2329 32.6093 56.2789 32.6093H56.6549C56.6779 32.6093 56.7019 32.6093 56.7249 32.6339C56.7249 32.6339 56.7249 32.6586 56.7249 32.7078L55.5989 37.0153C55.5059 37.3599 55.4119 37.5814 55.3409 37.6799C55.2709 37.7537 55.0829 37.8029 54.8019 37.8029C54.5439 37.8029 54.3799 37.7537 54.3099 37.6799C54.2389 37.5814 54.1449 37.3599 54.0519 37.0153L52.9029 32.7078C52.9029 32.6832 52.9029 32.6586 52.9029 32.6339C52.9259 32.5847 52.9489 32.5847 52.9729 32.5847ZM59.5159 32.5601C59.8199 32.5601 60.0079 32.6093 60.1019 32.6832C60.1959 32.7816 60.2899 33.0032 60.3829 33.3478L61.5089 37.6553C61.5319 37.7291 61.5089 37.7537 61.4389 37.7537H61.0629C61.0399 37.7537 60.9929 37.7291 60.9929 37.6553L60.5709 36.0553H58.5069L58.0849 37.6553C58.0619 37.7045 58.0379 37.7537 58.0149 37.7537H57.6399C57.5929 37.7537 57.5689 37.7291 57.5689 37.6553L58.7419 33.3478C58.8359 33.0032 58.9289 32.7816 59.0229 32.6832C59.0699 32.5847 59.2579 32.5601 59.5159 32.5601ZM59.5159 33.0032C59.4219 33.0032 59.3509 33.0278 59.3049 33.077C59.2579 33.1262 59.2109 33.2493 59.1639 33.4462L58.6009 35.563H60.4299L59.8909 33.4462C59.8439 33.2493 59.7969 33.1262 59.7499 33.077C59.7269 33.0278 59.6559 33.0032 59.5159 33.0032ZM66.5739 32.5847H66.903C66.95 32.5847 66.9729 32.6093 66.9729 32.6586V37.6553C66.9729 37.7045 66.95 37.7537 66.903 37.7537H66.5739C66.5039 37.7537 66.4339 37.7291 66.3869 37.6553L63.6199 33.2739V37.6553C63.6199 37.7045 63.5959 37.7537 63.5259 37.7537H63.1969C63.1509 37.7537 63.1039 37.7291 63.1039 37.6553V32.6586C63.1039 32.6093 63.1269 32.5847 63.1969 32.5847H63.549C63.643 32.5847 63.7129 32.5847 63.7369 32.6093C63.7599 32.6339 63.8069 32.6832 63.8539 32.7324L66.4809 36.8676V32.6586C66.5039 32.6093 66.5269 32.5847 66.5739 32.5847ZM70.7719 32.5601C71.2879 32.5601 71.6869 32.5847 71.9449 32.6093C71.9909 32.6093 72.015 32.6339 72.015 32.7078V32.9539C72.015 33.0032 71.9909 33.0524 71.9209 33.0524H70.7489C70.4199 33.0524 70.1619 33.077 69.9979 33.1508C69.8109 33.2247 69.6699 33.3231 69.5759 33.4954C69.4819 33.6677 69.4119 33.8647 69.3649 34.1354C69.3419 34.3816 69.3179 34.7262 69.3179 35.1938C69.3179 35.6615 69.3419 36.0061 69.3649 36.2522C69.4119 36.4984 69.4819 36.7199 69.5759 36.8922C69.6699 37.0645 69.8339 37.1876 69.9979 37.2614C70.1859 37.3353 70.4199 37.3599 70.7489 37.3599H71.9209C71.9679 37.3599 72.015 37.3845 72.015 37.4337V37.6799C72.015 37.7291 71.9909 37.7783 71.9449 37.7783C71.6629 37.803 71.2639 37.8276 70.7719 37.8276C70.1619 37.8276 69.7169 37.7045 69.4119 37.483C69.1769 37.3107 69.0369 37.0399 68.9429 36.6953C68.8719 36.3507 68.8259 35.8584 68.8259 35.2184C68.8259 34.4308 68.8959 33.8154 69.0599 33.4216C69.2009 33.1262 69.3879 32.9047 69.6459 32.7816C69.9039 32.6339 70.2799 32.5601 70.7719 32.5601ZM73.7969 32.5847H76.7749C76.8219 32.5847 76.8689 32.6093 76.8689 32.6586V32.9539C76.8689 33.0032 76.8459 33.0524 76.7749 33.0524H74.2189V35.0215H76.5409C76.5879 35.0215 76.6349 35.0461 76.6349 35.0954V35.3907C76.6349 35.44 76.6109 35.4892 76.5409 35.4892H74.2189V37.2861H76.7749C76.8219 37.2861 76.8689 37.3107 76.8689 37.3599V37.6553C76.8689 37.7045 76.8459 37.7537 76.7749 37.7537H73.7969C73.7269 37.7537 73.7029 37.7291 73.7029 37.6553V32.7078C73.7029 32.6093 73.7269 32.5847 73.7969 32.5847ZM80.4809 32.5601C81.2079 32.5601 81.724 32.757 82.028 33.1508C82.333 33.5447 82.4739 34.2093 82.4739 35.1692C82.4739 36.1292 82.333 36.7938 82.028 37.1876C81.724 37.5814 81.2079 37.7783 80.4809 37.7783C79.8009 37.7783 79.2139 37.7783 78.6979 37.7537C78.6509 37.7537 78.6049 37.7291 78.6049 37.6553V32.6832C78.6049 32.6339 78.6279 32.6093 78.6979 32.5847C79.0739 32.5601 79.6829 32.5601 80.4809 32.5601ZM80.3869 33.0032H79.0969V37.3107H80.4569C81.0199 37.3107 81.3949 37.1384 81.6059 36.8184C81.8169 36.4984 81.9349 35.9323 81.9349 35.1446C81.9349 34.3569 81.8169 33.8154 81.5829 33.4954C81.3479 33.1755 80.9729 33.0032 80.3869 33.0032ZM88.1259 32.5601C88.5479 32.5601 88.9699 32.5847 89.4149 32.6339C89.4619 32.6339 89.4859 32.6586 89.4859 32.7078V32.9539C89.4859 33.0032 89.4619 33.0278 89.4149 33.0278H87.9609C87.6329 33.0278 87.3749 33.077 87.2339 33.2001C87.0699 33.2985 86.9999 33.4954 86.9999 33.7416V33.84C86.9999 34.037 87.0469 34.2093 87.1169 34.3077C87.1879 34.4062 87.3279 34.5292 87.5389 34.6031L89.0399 35.2677C89.2979 35.3907 89.4859 35.5384 89.5799 35.7353C89.6729 35.9323 89.7439 36.1538 89.7439 36.4492V36.6461C89.7439 37.0399 89.6259 37.3353 89.4149 37.5076C89.3219 37.5814 89.1809 37.6553 89.0399 37.7045C88.8059 37.7783 88.4769 37.8029 88.1019 37.8029C87.5159 37.8029 86.9759 37.7783 86.5069 37.7291C86.4609 37.7291 86.437 37.7045 86.437 37.6553V37.4337C86.437 37.3845 86.4609 37.3599 86.5069 37.3599H88.243C88.595 37.3599 88.8289 37.3107 88.993 37.2122C89.157 37.1137 89.2279 36.9168 89.2279 36.6707V36.523C89.2279 36.3261 89.1809 36.1784 89.1109 36.0307C89.0399 35.9076 88.8989 35.7846 88.7119 35.7107L87.0939 35.0215C86.9299 34.9477 86.7889 34.8492 86.6949 34.7262C86.6009 34.6031 86.5309 34.48 86.5069 34.3569C86.4839 34.2339 86.4609 34.0862 86.4609 33.8893V33.7416C86.4609 33.3724 86.554 33.1016 86.765 32.9047C87.07 32.6586 87.5159 32.5601 88.1259 32.5601ZM93.2139 32.5601C93.8239 32.5601 94.27 32.6832 94.575 32.9047C94.809 33.077 94.9499 33.3478 95.0199 33.6924C95.1139 34.037 95.137 34.5292 95.1609 35.1692C95.1609 35.7107 95.1369 36.1292 95.0669 36.4492C95.0199 36.7691 94.9029 37.0153 94.7619 37.2368C94.6209 37.4337 94.4339 37.5814 94.1759 37.6553C93.9409 37.7291 93.6129 37.7783 93.1909 37.7783C92.7689 37.7783 92.4409 37.7291 92.2059 37.6553C91.9709 37.5814 91.7839 37.4337 91.6429 37.2368C91.5019 37.0399 91.409 36.7691 91.338 36.4492C91.291 36.1292 91.2449 35.7107 91.2449 35.1692C91.2449 34.3569 91.3149 33.7662 91.4789 33.3724C91.6199 33.077 91.8069 32.8555 92.0649 32.7324C92.3469 32.6339 92.7219 32.5601 93.2139 32.5601ZM93.9649 33.1016C93.7769 33.0278 93.5189 33.0032 93.2139 33.0032C92.9099 33.0032 92.6749 33.0278 92.4639 33.1016C92.1119 33.2247 91.9009 33.5693 91.8309 34.1108C91.8069 34.3816 91.7839 34.7262 91.7839 35.1692C91.7839 35.5877 91.8069 35.9569 91.8309 36.2276C91.9009 36.7691 92.1359 37.1137 92.4639 37.2368C92.6279 37.286 92.8859 37.3353 93.2139 37.3353C93.5429 37.3353 93.7769 37.3107 93.9649 37.2368C94.3169 37.1137 94.5279 36.7691 94.6209 36.2276C94.6449 35.9569 94.6679 35.6123 94.6679 35.1692C94.6679 34.7508 94.6449 34.3816 94.6209 34.1108C94.5279 33.5693 94.3169 33.2493 93.9649 33.1016ZM97.084 32.5847H97.4119C97.4589 32.5847 97.506 32.6093 97.506 32.6586V37.2614H99.9919C100.039 37.2614 100.085 37.286 100.085 37.3353V37.6306C100.085 37.6799 100.062 37.7291 99.9919 37.7291H97.1069C97.0369 37.7291 97.0129 37.7045 97.0129 37.6306V32.6586C97.0129 32.6093 97.037 32.5847 97.084 32.5847ZM104.494 32.5847H104.823C104.869 32.5847 104.916 32.6093 104.916 32.6586V35.1692C104.916 35.7353 104.893 36.1538 104.823 36.4738C104.776 36.7938 104.682 37.0399 104.518 37.2368C104.377 37.4337 104.189 37.5814 103.955 37.6553C103.72 37.7291 103.415 37.7537 102.993 37.7537C102.571 37.7537 102.266 37.7045 102.032 37.6553C101.797 37.5814 101.61 37.4337 101.469 37.2368C101.328 37.0399 101.235 36.7691 101.164 36.4738C101.117 36.1538 101.094 35.7107 101.094 35.1692V32.6586C101.094 32.6093 101.117 32.5847 101.164 32.5847H101.493C101.539 32.5847 101.586 32.6093 101.586 32.6586V35.1692C101.586 35.6123 101.61 35.9815 101.657 36.2522C101.704 36.4984 101.774 36.7199 101.891 36.8922C101.985 37.0645 102.126 37.163 102.313 37.2368C102.477 37.286 102.712 37.3353 103.017 37.3353C103.322 37.3353 103.556 37.3107 103.72 37.2368C103.884 37.163 104.025 37.0645 104.142 36.8922C104.236 36.7199 104.33 36.523 104.354 36.2522C104.4 35.9815 104.424 35.6369 104.424 35.1692V32.6586C104.424 32.6093 104.424 32.6093 104.447 32.5847C104.424 32.5847 104.447 32.5847 104.494 32.5847ZM106.464 32.5847H110.052C110.099 32.5847 110.122 32.6093 110.122 32.6586V32.9539C110.122 33.0032 110.099 33.0524 110.052 33.0524H108.504V37.6553C108.504 37.7045 108.481 37.7537 108.41 37.7537H108.082C108.035 37.7537 107.988 37.7291 107.988 37.6553V33.0524H106.441C106.394 33.0524 106.347 33.0278 106.347 32.9539V32.6586C106.394 32.6093 106.417 32.5847 106.464 32.5847ZM111.74 32.5847H112.069C112.116 32.5847 112.163 32.6093 112.163 32.6586V37.6553C112.163 37.7045 112.139 37.7537 112.069 37.7537H111.74C111.694 37.7537 111.67 37.7291 111.67 37.6553V32.6586C111.647 32.6093 111.67 32.5847 111.74 32.5847ZM115.915 32.5601C116.524 32.5601 116.97 32.6832 117.275 32.9047C117.509 33.077 117.65 33.3478 117.72 33.6924C117.814 34.037 117.838 34.5292 117.861 35.1692C117.861 35.7107 117.838 36.1292 117.767 36.4492C117.72 36.7691 117.603 37.0153 117.462 37.2368C117.322 37.4337 117.134 37.5814 116.876 37.6553C116.642 37.7291 116.313 37.7783 115.891 37.7783C115.469 37.7783 115.141 37.7291 114.906 37.6553C114.672 37.5814 114.484 37.4337 114.344 37.2368C114.203 37.0399 114.109 36.7691 114.039 36.4492C113.992 36.1292 113.945 35.7107 113.945 35.1692C113.945 34.3569 114.015 33.7662 114.179 33.3724C114.32 33.077 114.508 32.8555 114.766 32.7324C115.07 32.6339 115.446 32.5601 115.915 32.5601ZM116.665 33.1016C116.478 33.0278 116.22 33.0032 115.915 33.0032C115.61 33.0032 115.375 33.0278 115.164 33.1016C114.813 33.2247 114.601 33.5693 114.531 34.1108C114.484 34.3816 114.484 34.7262 114.484 35.1692C114.484 35.5877 114.508 35.9569 114.531 36.2276C114.601 36.7691 114.836 37.1137 115.164 37.2368C115.328 37.286 115.586 37.3353 115.915 37.3353C116.243 37.3353 116.478 37.3107 116.665 37.2368C117.017 37.1137 117.228 36.7691 117.322 36.2276C117.345 35.9569 117.369 35.6123 117.369 35.1692C117.369 34.7508 117.345 34.3816 117.322 34.1108C117.251 33.5693 117.017 33.2493 116.665 33.1016ZM123.161 32.5847H123.489C123.536 32.5847 123.56 32.6093 123.56 32.6586V37.6553C123.56 37.7045 123.536 37.7537 123.489 37.7537H123.161C123.091 37.7537 123.02 37.7291 122.973 37.6553L120.206 33.2739V37.6553C120.206 37.7045 120.183 37.7537 120.112 37.7537H119.784C119.737 37.7537 119.69 37.7291 119.69 37.6553V32.6586C119.69 32.6093 119.714 32.5847 119.784 32.5847H120.136C120.23 32.5847 120.3 32.5847 120.323 32.6093C120.37 32.6339 120.394 32.6832 120.441 32.7324L123.067 36.8676V32.6586C123.067 32.6093 123.114 32.5847 123.161 32.5847ZM127.007 32.5601C127.429 32.5601 127.851 32.5847 128.297 32.6339C128.344 32.6339 128.367 32.6586 128.367 32.7078V32.9539C128.367 33.0032 128.344 33.0278 128.297 33.0278H126.843C126.514 33.0278 126.257 33.077 126.116 33.2001C125.952 33.2985 125.881 33.4954 125.881 33.7416V33.84C125.881 34.037 125.928 34.2093 125.999 34.3077C126.069 34.4062 126.21 34.5292 126.421 34.6031L127.922 35.2677C128.179 35.3907 128.367 35.5384 128.461 35.7353C128.555 35.9323 128.625 36.1538 128.625 36.4492V36.6461C128.625 37.0399 128.508 37.3353 128.297 37.5076C128.203 37.5814 128.062 37.6553 127.922 37.7045C127.687 37.7783 127.359 37.8029 126.983 37.8029C126.397 37.8029 125.858 37.7783 125.389 37.7291C125.342 37.7291 125.318 37.7045 125.318 37.6553V37.4337C125.318 37.3845 125.342 37.3599 125.389 37.3599H127.124C127.476 37.3599 127.71 37.3107 127.875 37.2122C128.039 37.1137 128.109 36.9168 128.109 36.6707V36.523C128.109 36.3261 128.062 36.1784 127.992 36.0307C127.922 35.9076 127.781 35.7846 127.593 35.7107L125.975 35.0215C125.811 34.9477 125.67 34.8492 125.576 34.7262C125.483 34.6031 125.412 34.48 125.389 34.3569C125.365 34.2339 125.342 34.0862 125.342 33.8893V33.7416C125.342 33.3724 125.436 33.1016 125.647 32.9047C125.952 32.6586 126.397 32.5601 127.007 32.5601Z" fill="white"/>
</svg>
